<?xml version="1.0" encoding="UTF-8"?>
<svg version="1.1" xmlns="http://www.w3.org/2000/svg" width="464" height="480">
<path d="M0 0 C1.44192921 -0.0053346 2.88385285 -0.01240551 4.32576603 -0.02104706 C8.26087746 -0.03958006 12.19561015 -0.03340202 16.13073671 -0.02289402 C20.38506758 -0.01587544 24.63932271 -0.03191989 28.89363098 -0.04489136 C37.2167992 -0.06649101 45.53983049 -0.06641504 53.86301751 -0.05826581 C60.62898734 -0.05195716 67.39491734 -0.05311077 74.16088676 -0.05953789 C75.12511022 -0.06043954 76.08933367 -0.0613412 77.08277602 -0.06227018 C79.04177484 -0.06412143 81.00077366 -0.065984 82.95977246 -0.06785773 C101.31337852 -0.08442165 119.66690763 -0.07572845 138.02050906 -0.05887216 C154.80345736 -0.04417121 171.5862267 -0.05881166 188.36915196 -0.08764232 C205.61581728 -0.11704834 222.86240003 -0.12800541 240.10908931 -0.11846012 C242.06043715 -0.1174376 244.011785 -0.11644299 245.96313286 -0.11547661 C246.92315536 -0.11500022 247.88317785 -0.11452383 248.87229194 -0.114033 C255.6284406 -0.11187075 262.38451089 -0.12166269 269.14064217 -0.13624763 C277.376504 -0.1537796 285.61213757 -0.15364094 293.84799046 -0.13089598 C298.0478232 -0.11976256 302.24725391 -0.11657079 306.44706917 -0.13519669 C310.29568294 -0.15204519 314.14354536 -0.14559228 317.99211084 -0.1209799 C319.38023823 -0.11611052 320.76842674 -0.11957435 322.15650279 -0.13246734 C331.67315383 -0.21444563 339.44858452 0.82491705 346.63620383 7.50439733 C353.46595907 14.67202227 354.9487461 21.21089608 354.78807068 30.82325745 C354.78382584 31.78997879 354.77958099 32.75670013 354.77520752 33.75271606 C354.75850715 36.81949019 354.72087091 39.88559049 354.68260193 42.9521637 C354.66754393 45.04004478 354.65385748 47.12793624 354.6415863 49.21583557 C354.60863191 54.31570185 354.55690944 59.41506879 354.49510193 64.5146637 C356.46301697 64.4832428 356.46301697 64.4832428 358.47068787 64.45118713 C363.33841537 64.37878399 368.20609528 64.33286256 373.07420349 64.29493713 C375.18105575 64.27482244 377.28785218 64.24752703 379.39451599 64.21290588 C382.4229764 64.16438201 385.45069871 64.14169353 388.47947693 64.1240387 C389.89217865 64.09307098 389.89217865 64.09307098 391.3334198 64.06147766 C397.83870788 64.0592458 397.83870788 64.0592458 401.08177185 66.30934143 C402.78260083 68.96326926 403.17751576 71.15460528 403.01512146 74.2983551 C401.97696495 78.72294893 399.11896462 82.12134729 396.43260193 85.7021637 C395.28234901 87.24817512 394.14498907 88.80388552 393.02244568 90.37013245 C392.51447449 91.04713196 392.0065033 91.72413147 391.48313904 92.42164612 C390.15856778 95.22756394 390.54022633 96.59965978 391.49510193 99.5146637 C392.58866499 101.54933315 392.58866499 101.54933315 393.99900818 103.44044495 C394.49207458 104.1552301 394.98514099 104.87001526 395.4931488 105.60646057 C396.53191158 107.08095904 397.57875307 108.54980078 398.6337738 110.01271057 C402.11320736 115.09733497 403.47915115 118.33014245 402.49510193 124.5146637 C401.08421326 126.72193909 401.08421326 126.72193909 398.49510193 128.5146637 C395.15330222 129.07031633 391.85882842 128.97936717 388.47947693 128.9052887 C387.50851074 128.89962891 386.53754456 128.89396912 385.53715515 128.88813782 C382.43930023 128.86576681 379.3426066 128.81556842 376.24510193 128.7646637 C374.14355615 128.74459966 372.04199221 128.72634872 369.94041443 128.7099762 C364.79153023 128.6658995 359.64351289 128.59686628 354.49510193 128.5146637 C354.49510193 133.7946637 354.49510193 139.0746637 354.49510193 144.5146637 C356.29173279 144.49371643 358.08836365 144.47276917 359.93943787 144.45118713 C365.87855774 144.38666103 371.81757836 144.34071351 377.75693893 144.30741501 C381.35768479 144.28654857 384.95805108 144.25824949 388.55857849 144.21290588 C392.03398106 144.16941245 395.5090188 144.14551948 398.98467255 144.13515472 C400.95455977 144.12417755 402.9243004 144.0929567 404.89396667 144.06147766 C406.69538116 144.06102448 406.69538116 144.06102448 408.53318787 144.06056213 C409.59019897 144.05167969 410.64721008 144.04279724 411.73625183 144.03364563 C415.22026128 144.64109853 416.38144737 145.72295538 418.49510193 148.5146637 C419.40309558 153.8216328 418.77888481 156.57049171 415.83494568 161.05763245 C414.7189743 162.61893833 413.58428709 164.16701241 412.43260193 165.7021637 C411.28234901 167.24817512 410.14498907 168.80388552 409.02244568 170.37013245 C408.51447449 171.04713196 408.0065033 171.72413147 407.48313904 172.42164612 C406.15856778 175.22756394 406.54022633 176.59965978 407.49510193 179.5146637 C408.58866499 181.54933315 408.58866499 181.54933315 409.99900818 183.44044495 C410.49207458 184.1552301 410.98514099 184.87001526 411.4931488 185.60646057 C412.53191158 187.08095904 413.57875307 188.54980078 414.6337738 190.01271057 C418.11320736 195.09733497 419.47915115 198.33014245 418.49510193 204.5146637 C416.38399524 207.30957477 415.22081779 208.38813183 411.73625183 208.99568176 C410.67924072 208.98679932 409.62222961 208.97791687 408.53318787 208.96876526 C407.33224487 208.96846313 406.13130188 208.96816101 404.89396667 208.96784973 C403.60218506 208.94720459 402.31040344 208.92655945 400.97947693 208.9052887 C399.63998764 208.89782441 398.3004874 208.89213236 396.96098328 208.88813782 C393.44258756 208.87289583 389.92485678 208.83362787 386.40672302 208.7893219 C382.81387832 208.74833734 379.22092573 208.7301201 375.62791443 208.7099762 C368.58337227 208.66713115 361.5392806 208.59889816 354.49510193 208.5146637 C354.49971089 209.80418631 354.50431986 211.09370892 354.50906849 212.42230797 C354.61742523 243.05282152 354.69983818 273.68328323 354.75042858 304.31394251 C354.75668189 308.08641632 354.76315353 311.85888972 354.76976013 315.63136292 C354.77107168 316.38237473 354.77238324 317.13338655 354.77373453 317.9071563 C354.79547399 330.05753337 354.8348874 342.2077918 354.88086591 354.35809855 C354.92767131 366.83121631 354.95540593 379.30427207 354.9655444 391.77747405 C354.97239514 399.47031228 354.99400956 407.16281515 355.03468426 414.85555013 C355.06431049 420.76053929 355.06736576 426.66535758 355.06064034 432.57042313 C355.06201401 434.98830476 355.07193476 437.40619929 355.0911293 439.82400513 C355.11609562 443.13154046 355.10999282 446.4376541 355.09637451 449.745224 C355.11093872 450.69661456 355.12550293 451.64800511 355.14050847 452.62822568 C355.05468192 460.36774039 352.82078182 466.91261459 347.50526315 472.6698612 C339.17533883 480.54528573 331.53056601 480.95447713 320.47795105 480.90234375 C319.04018973 480.9065191 317.6024317 480.91199773 316.16467977 480.91866356 C312.22251681 480.93311098 308.28056305 480.92887566 304.33838868 480.92149675 C300.08329957 480.91676552 295.82825574 480.92927466 291.57318115 480.93951416 C283.23978969 480.95670951 274.9064736 480.95754049 266.57306901 480.95230126 C259.79795976 480.948259 253.02287277 480.94970379 246.24776459 480.95504951 C245.2832879 480.95579794 244.3188112 480.95654636 243.32510795 480.95731746 C241.36570872 480.95884895 239.4063095 480.9603873 237.44691029 480.96193243 C219.0713672 480.97566062 200.69586669 480.97021797 182.32032457 480.95874722 C165.5184229 480.9488188 148.71663141 480.96174817 131.91474673 480.98568141 C114.65578115 481.01008011 97.39686686 481.01967811 80.13788438 481.01302868 C70.4510746 481.00953762 60.76434952 481.01176082 51.0775528 481.02927971 C42.82957535 481.04401149 34.58174221 481.04462457 26.33376756 481.0272088 C22.12781237 481.01870366 17.92211485 481.01653714 13.71617317 481.03186035 C9.8606607 481.04573255 6.00562604 481.04091218 2.15014103 481.02162112 C0.76052852 481.01786844 -0.6291225 481.02076188 -2.01870063 481.03123277 C-14.91843126 481.12147053 -25.01756131 478.57157308 -34.50489807 469.5146637 C-44.94408153 458.57936062 -46.09716887 446.82873259 -46.01283264 432.39698792 C-46.01744732 430.67116203 -46.02380404 428.94534009 -46.03174162 427.21952629 C-46.04838016 422.49965001 -46.04021355 417.78009885 -46.02779675 413.06022167 C-46.01872611 407.96129382 -46.03272596 402.86242088 -46.04371643 397.76350403 C-46.06148474 387.78363231 -46.05766917 377.80388105 -46.04606587 367.82400465 C-46.03702519 359.71174603 -46.0358103 351.59952113 -46.04016113 343.48725891 C-46.04077406 342.33182425 -46.041387 341.1763896 -46.0420185 339.98594177 C-46.04329743 337.63855568 -46.04459428 335.29116959 -46.04590887 332.94378352 C-46.05730972 310.94239388 -46.0442087 288.94107096 -46.0227074 266.93969226 C-46.00483689 248.06946704 -46.00794113 229.19934026 -46.02638245 210.32911682 C-46.04779787 188.40540764 -46.05621113 166.48175689 -46.04393339 144.55803871 C-46.04265922 142.21938198 -46.04140174 139.88072523 -46.04016113 137.54206848 C-46.03954403 136.39146309 -46.03892693 135.24085769 -46.03829113 134.05538547 C-46.03484025 125.95470008 -46.04066093 117.85405183 -46.05007935 109.75337219 C-46.06130815 99.87872121 -46.05824067 90.00419739 -46.03695637 80.12956095 C-46.0264579 75.09323791 -46.02230369 70.05712674 -46.03555298 65.02080536 C-46.04750751 60.40679947 -46.04086392 55.79320102 -46.01964277 51.17923188 C-46.01518967 49.51383498 -46.01741381 47.84840336 -46.02714592 46.18302894 C-46.10048665 32.58546098 -44.22376245 21.6954147 -34.50489807 11.5146637 C-24.35293309 1.82327936 -13.67289257 -0.08541957 0 0 Z " fill="#E72E3D" transform="translate(45.50489807128906,-0.5146636962890625)"/>
<path d="M0 0 C1.44192921 -0.0053346 2.88385285 -0.01240551 4.32576603 -0.02104706 C8.26087746 -0.03958006 12.19561015 -0.03340202 16.13073671 -0.02289402 C20.38506758 -0.01587544 24.63932271 -0.03191989 28.89363098 -0.04489136 C37.2167992 -0.06649101 45.53983049 -0.06641504 53.86301751 -0.05826581 C60.62898734 -0.05195716 67.39491734 -0.05311077 74.16088676 -0.05953789 C75.12511022 -0.06043954 76.08933367 -0.0613412 77.08277602 -0.06227018 C79.04177484 -0.06412143 81.00077366 -0.065984 82.95977246 -0.06785773 C101.31337852 -0.08442165 119.66690763 -0.07572845 138.02050906 -0.05887216 C154.80345736 -0.04417121 171.5862267 -0.05881166 188.36915196 -0.08764232 C205.61581728 -0.11704834 222.86240003 -0.12800541 240.10908931 -0.11846012 C242.06043715 -0.1174376 244.011785 -0.11644299 245.96313286 -0.11547661 C246.92315536 -0.11500022 247.88317785 -0.11452383 248.87229194 -0.114033 C255.6284406 -0.11187075 262.38451089 -0.12166269 269.14064217 -0.13624763 C277.376504 -0.1537796 285.61213757 -0.15364094 293.84799046 -0.13089598 C298.0478232 -0.11976256 302.24725391 -0.11657079 306.44706917 -0.13519669 C310.29568294 -0.15204519 314.14354536 -0.14559228 317.99211084 -0.1209799 C319.38023823 -0.11611052 320.76842674 -0.11957435 322.15650279 -0.13246734 C331.67315383 -0.21444563 339.44858452 0.82491705 346.63620383 7.50439733 C353.46595907 14.67202227 354.9487461 21.21089608 354.78807068 30.82325745 C354.78382584 31.78997879 354.77958099 32.75670013 354.77520752 33.75271606 C354.75850715 36.81949019 354.72087091 39.88559049 354.68260193 42.9521637 C354.66754393 45.04004478 354.65385748 47.12793624 354.6415863 49.21583557 C354.60863191 54.31570185 354.55690944 59.41506879 354.49510193 64.5146637 C356.46301697 64.4832428 356.46301697 64.4832428 358.47068787 64.45118713 C363.33841537 64.37878399 368.20609528 64.33286256 373.07420349 64.29493713 C375.18105575 64.27482244 377.28785218 64.24752703 379.39451599 64.21290588 C382.4229764 64.16438201 385.45069871 64.14169353 388.47947693 64.1240387 C389.89217865 64.09307098 389.89217865 64.09307098 391.3334198 64.06147766 C397.83870788 64.0592458 397.83870788 64.0592458 401.08177185 66.30934143 C402.78260083 68.96326926 403.17751576 71.15460528 403.01512146 74.2983551 C401.97696495 78.72294893 399.11896462 82.12134729 396.43260193 85.7021637 C395.28234901 87.24817512 394.14498907 88.80388552 393.02244568 90.37013245 C392.51447449 91.04713196 392.0065033 91.72413147 391.48313904 92.42164612 C390.15856778 95.22756394 390.54022633 96.59965978 391.49510193 99.5146637 C392.58866499 101.54933315 392.58866499 101.54933315 393.99900818 103.44044495 C394.49207458 104.1552301 394.98514099 104.87001526 395.4931488 105.60646057 C396.53191158 107.08095904 397.57875307 108.54980078 398.6337738 110.01271057 C402.11320736 115.09733497 403.47915115 118.33014245 402.49510193 124.5146637 C401.08421326 126.72193909 401.08421326 126.72193909 398.49510193 128.5146637 C395.15330222 129.07031633 391.85882842 128.97936717 388.47947693 128.9052887 C387.50851074 128.89962891 386.53754456 128.89396912 385.53715515 128.88813782 C382.43930023 128.86576681 379.3426066 128.81556842 376.24510193 128.7646637 C374.14355615 128.74459966 372.04199221 128.72634872 369.94041443 128.7099762 C364.79153023 128.6658995 359.64351289 128.59686628 354.49510193 128.5146637 C354.49510193 133.7946637 354.49510193 139.0746637 354.49510193 144.5146637 C356.29173279 144.49371643 358.08836365 144.47276917 359.93943787 144.45118713 C365.87855774 144.38666103 371.81757836 144.34071351 377.75693893 144.30741501 C381.35768479 144.28654857 384.95805108 144.25824949 388.55857849 144.21290588 C392.03398106 144.16941245 395.5090188 144.14551948 398.98467255 144.13515472 C400.95455977 144.12417755 402.9243004 144.0929567 404.89396667 144.06147766 C406.69538116 144.06102448 406.69538116 144.06102448 408.53318787 144.06056213 C409.59019897 144.05167969 410.64721008 144.04279724 411.73625183 144.03364563 C415.22026128 144.64109853 416.38144737 145.72295538 418.49510193 148.5146637 C419.40309558 153.8216328 418.77888481 156.57049171 415.83494568 161.05763245 C414.7189743 162.61893833 413.58428709 164.16701241 412.43260193 165.7021637 C411.28234901 167.24817512 410.14498907 168.80388552 409.02244568 170.37013245 C408.51447449 171.04713196 408.0065033 171.72413147 407.48313904 172.42164612 C406.15856778 175.22756394 406.54022633 176.59965978 407.49510193 179.5146637 C408.58866499 181.54933315 408.58866499 181.54933315 409.99900818 183.44044495 C410.49207458 184.1552301 410.98514099 184.87001526 411.4931488 185.60646057 C412.53191158 187.08095904 413.57875307 188.54980078 414.6337738 190.01271057 C418.11320736 195.09733497 419.47915115 198.33014245 418.49510193 204.5146637 C416.38399524 207.30957477 415.22081779 208.38813183 411.73625183 208.99568176 C410.67924072 208.98679932 409.62222961 208.97791687 408.53318787 208.96876526 C407.33224487 208.96846313 406.13130188 208.96816101 404.89396667 208.96784973 C403.60218506 208.94720459 402.31040344 208.92655945 400.97947693 208.9052887 C399.63998764 208.89782441 398.3004874 208.89213236 396.96098328 208.88813782 C393.44258756 208.87289583 389.92485678 208.83362787 386.40672302 208.7893219 C382.81387832 208.74833734 379.22092573 208.7301201 375.62791443 208.7099762 C368.58337227 208.66713115 361.5392806 208.59889816 354.49510193 208.5146637 C354.49971089 209.80418631 354.50431986 211.09370892 354.50906849 212.42230797 C354.61742523 243.05282152 354.69983818 273.68328323 354.75042858 304.31394251 C354.75668189 308.08641632 354.76315353 311.85888972 354.76976013 315.63136292 C354.77107168 316.38237473 354.77238324 317.13338655 354.77373453 317.9071563 C354.79547399 330.05753337 354.8348874 342.2077918 354.88086591 354.35809855 C354.92767131 366.83121631 354.95540593 379.30427207 354.9655444 391.77747405 C354.97239514 399.47031228 354.99400956 407.16281515 355.03468426 414.85555013 C355.06431049 420.76053929 355.06736576 426.66535758 355.06064034 432.57042313 C355.06201401 434.98830476 355.07193476 437.40619929 355.0911293 439.82400513 C355.11609562 443.13154046 355.10999282 446.4376541 355.09637451 449.745224 C355.11093872 450.69661456 355.12550293 451.64800511 355.14050847 452.62822568 C355.05468192 460.36774039 352.82078182 466.91261459 347.50526315 472.6698612 C339.17533883 480.54528573 331.53056601 480.95447713 320.47795105 480.90234375 C319.04018973 480.9065191 317.6024317 480.91199773 316.16467977 480.91866356 C312.22251681 480.93311098 308.28056305 480.92887566 304.33838868 480.92149675 C300.08329957 480.91676552 295.82825574 480.92927466 291.57318115 480.93951416 C283.23978969 480.95670951 274.9064736 480.95754049 266.57306901 480.95230126 C259.79795976 480.948259 253.02287277 480.94970379 246.24776459 480.95504951 C245.2832879 480.95579794 244.3188112 480.95654636 243.32510795 480.95731746 C241.36570872 480.95884895 239.4063095 480.9603873 237.44691029 480.96193243 C219.0713672 480.97566062 200.69586669 480.97021797 182.32032457 480.95874722 C165.5184229 480.9488188 148.71663141 480.96174817 131.91474673 480.98568141 C114.65578115 481.01008011 97.39686686 481.01967811 80.13788438 481.01302868 C70.4510746 481.00953762 60.76434952 481.01176082 51.0775528 481.02927971 C42.82957535 481.04401149 34.58174221 481.04462457 26.33376756 481.0272088 C22.12781237 481.01870366 17.92211485 481.01653714 13.71617317 481.03186035 C9.8606607 481.04573255 6.00562604 481.04091218 2.15014103 481.02162112 C0.76052852 481.01786844 -0.6291225 481.02076188 -2.01870063 481.03123277 C-14.91843126 481.12147053 -25.01756131 478.57157308 -34.50489807 469.5146637 C-44.94408153 458.57936062 -46.09716887 446.82873259 -46.01283264 432.39698792 C-46.01744732 430.67116203 -46.02380404 428.94534009 -46.03174162 427.21952629 C-46.04838016 422.49965001 -46.04021355 417.78009885 -46.02779675 413.06022167 C-46.01872611 407.96129382 -46.03272596 402.86242088 -46.04371643 397.76350403 C-46.06148474 387.78363231 -46.05766917 377.80388105 -46.04606587 367.82400465 C-46.03702519 359.71174603 -46.0358103 351.59952113 -46.04016113 343.48725891 C-46.04077406 342.33182425 -46.041387 341.1763896 -46.0420185 339.98594177 C-46.04329743 337.63855568 -46.04459428 335.29116959 -46.04590887 332.94378352 C-46.05730972 310.94239388 -46.0442087 288.94107096 -46.0227074 266.93969226 C-46.00483689 248.06946704 -46.00794113 229.19934026 -46.02638245 210.32911682 C-46.04779787 188.40540764 -46.05621113 166.48175689 -46.04393339 144.55803871 C-46.04265922 142.21938198 -46.04140174 139.88072523 -46.04016113 137.54206848 C-46.03954403 136.39146309 -46.03892693 135.24085769 -46.03829113 134.05538547 C-46.03484025 125.95470008 -46.04066093 117.85405183 -46.05007935 109.75337219 C-46.06130815 99.87872121 -46.05824067 90.00419739 -46.03695637 80.12956095 C-46.0264579 75.09323791 -46.02230369 70.05712674 -46.03555298 65.02080536 C-46.04750751 60.40679947 -46.04086392 55.79320102 -46.01964277 51.17923188 C-46.01518967 49.51383498 -46.01741381 47.84840336 -46.02714592 46.18302894 C-46.10048665 32.58546098 -44.22376245 21.6954147 -34.50489807 11.5146637 C-24.35293309 1.82327936 -13.67289257 -0.08541957 0 0 Z M18.49510193 16.5146637 C18.49510193 143.2346637 18.49510193 269.9546637 18.49510193 400.5146637 C95.31291443 400.6074762 95.31291443 400.6074762 173.68260193 400.7021637 C189.87346863 400.72947571 206.06433533 400.75678772 222.74583435 400.78492737 C237.21565914 400.79495853 237.21565914 400.79495853 251.68548584 400.80099487 C258.14779922 400.80379822 264.61003525 400.81482689 271.07232666 400.83139038 C278.520731 400.85045324 285.96906086 400.85917932 293.41748979 400.85499855 C297.22971167 400.85318709 301.04176697 400.85610851 304.85395849 400.87230909 C308.9317735 400.88953359 313.00922373 400.88366535 317.08706665 400.87542725 C318.28224568 400.88416524 319.47742472 400.89290323 320.7088213 400.90190601 C322.34927072 400.89294709 322.34927072 400.89294709 324.02286053 400.88380718 C324.96570611 400.88494634 325.90855169 400.8860855 326.87996835 400.88725919 C331.25442971 400.26400056 334.68846248 397.88263104 337.49510193 394.5146637 C338.42452349 391.726399 338.64512924 389.93639903 338.70474243 387.04665756 C338.72585114 386.12625207 338.74695986 385.20584657 338.76870823 384.25755 C338.79605753 382.73821514 338.79605753 382.73821514 338.82395935 381.18818665 C338.84668632 380.11310388 338.86941328 379.03802111 338.89282894 377.93036008 C338.96737424 374.30848083 339.03427932 370.68650756 339.10057068 367.06446838 C339.13756388 365.16484659 339.13756388 365.16484659 339.17530441 363.2268486 C339.64783605 338.96028643 339.94167866 314.69176101 340.16184455 290.42168824 C340.19794939 286.44420604 340.23529618 282.46673639 340.27342224 278.48927307 C340.28477142 277.30178812 340.28477142 277.30178812 340.29634988 276.09031358 C340.42157295 263.33120312 340.65941117 250.57665556 340.94097412 237.8201445 C341.22846629 224.68373334 341.394881 211.54967522 341.4525156 198.41022801 C341.48811048 191.04709102 341.57640736 183.69304573 341.80329895 176.33310699 C343.90838601 141.13808384 343.90838601 141.13808384 329.52842999 110.43563676 C323.08647042 103.60178408 315.86460363 96.88128556 307.49510193 92.5146637 C304.79498936 92.52969317 304.79498936 92.52969317 302.49510193 93.5146637 C293.58751946 96.12550683 285.12461827 97.16097573 276.62010193 92.7568512 C275.91885193 92.34692932 275.21760193 91.93700745 274.49510193 91.5146637 C273.79385193 91.12536682 273.09260193 90.73606995 272.37010193 90.3349762 C265.51581634 85.94719489 261.82978082 78.76440067 259.85057068 70.97950745 C259.00682231 65.12890064 258.4782319 59.03035238 261.05760193 53.5771637 C262.61963151 50.24936154 262.6684777 49.78439946 261.49510193 46.5146637 C253.26732108 34.01800413 241.14690843 18.82559526 226.16643524 14.8068161 C212.78652719 12.14395741 198.845752 12.95984011 185.29507446 13.47625732 C179.98780881 13.64987416 174.68488129 13.65528435 169.3747406 13.67652893 C153.95397572 13.83263517 138.53677061 14.25148161 123.12010193 14.6396637 C88.59385193 15.2584137 54.06760193 15.8771637 18.49510193 16.5146637 Z " fill="#000000" transform="translate(45.50489807128906,-0.5146636962890625)"/>
<path d="M0 0 C9.62584313 6.92924169 15.68496104 15.30890059 21.16015625 25.7734375 C22.1917936 27.74807964 22.1917936 27.74807964 24.203125 29.5859375 C26.66644636 30.0944752 29.09535592 30.51728684 31.578125 30.8984375 C47.48652074 33.65760277 60.20990737 40.68755504 70.1953125 53.58984375 C79.28266144 67.15014849 82.23737833 81.61371067 79.515625 97.7109375 C75.80195231 113.35958587 67.3750491 125.43679022 54.203125 134.5859375 C51.31601335 136.29329033 48.41329873 137.88612261 45.41796875 139.39453125 C43.08436283 140.51286574 43.08436283 140.51286574 41.203125 142.5859375 C40.87153215 145.05213914 40.87153215 145.05213914 40.88427734 147.95361328 C40.86440765 149.07462433 40.84453796 150.19563538 40.82406616 151.35061646 C40.81251495 152.56522552 40.80096375 153.77983459 40.7890625 155.03125 C40.76969635 156.27139862 40.7503302 157.51154724 40.7303772 158.78927612 C40.6806369 162.08705529 40.63940023 165.38479889 40.60223389 168.68273926 C40.56223498 172.04771084 40.51112397 175.41251142 40.4609375 178.77734375 C40.36472699 185.38010805 40.28074805 191.98292958 40.203125 198.5859375 C32.283125 198.5859375 24.363125 198.5859375 16.203125 198.5859375 C16.16445313 195.73195313 16.16445313 195.73195313 16.125 192.8203125 C16.06872598 190.32549767 16.0113785 187.83070689 15.953125 185.3359375 C15.93894531 184.08167969 15.92476562 182.82742188 15.91015625 181.53515625 C15.86181641 179.72724609 15.86181641 179.72724609 15.8125 177.8828125 C15.79155273 176.77260742 15.77060547 175.66240234 15.74902344 174.51855469 C15.08640746 170.95892002 14.05385887 169.75798689 11.203125 167.5859375 C8.203125 166.91927083 8.203125 166.91927083 5.203125 167.5859375 C2.35239113 169.75798689 1.31984254 170.95892002 0.65722656 174.51855469 C0.6362793 175.62875977 0.61533203 176.73896484 0.59375 177.8828125 C0.56152344 179.08808594 0.52929688 180.29335938 0.49609375 181.53515625 C0.48191406 182.78941406 0.46773437 184.04367187 0.453125 185.3359375 C0.42347656 186.60566406 0.39382813 187.87539063 0.36328125 189.18359375 C0.29259466 192.31736586 0.24559494 195.451656 0.203125 198.5859375 C-7.716875 198.5859375 -15.636875 198.5859375 -23.796875 198.5859375 C-23.82265625 196.68328125 -23.8484375 194.780625 -23.875 192.8203125 C-23.93127402 190.32549767 -23.9886215 187.83070689 -24.046875 185.3359375 C-24.06105469 184.08167969 -24.07523437 182.82742188 -24.08984375 181.53515625 C-24.13818359 179.72724609 -24.13818359 179.72724609 -24.1875 177.8828125 C-24.2189209 176.21750488 -24.2189209 176.21750488 -24.25097656 174.51855469 C-24.91359254 170.95892002 -25.94614113 169.75798689 -28.796875 167.5859375 C-31.796875 166.91927083 -31.796875 166.91927083 -34.796875 167.5859375 C-37.64760887 169.75798689 -38.68015746 170.95892002 -39.34277344 174.51855469 C-39.3637207 175.62875977 -39.38466797 176.73896484 -39.40625 177.8828125 C-39.43847656 179.08808594 -39.47070312 180.29335938 -39.50390625 181.53515625 C-39.51808594 182.78941406 -39.53226562 184.04367187 -39.546875 185.3359375 C-39.59134766 187.24052734 -39.59134766 187.24052734 -39.63671875 189.18359375 C-39.70740534 192.31736586 -39.75440506 195.451656 -39.796875 198.5859375 C-47.716875 198.5859375 -55.636875 198.5859375 -63.796875 198.5859375 C-63.82265625 196.68328125 -63.8484375 194.780625 -63.875 192.8203125 C-63.93127402 190.32549767 -63.9886215 187.83070689 -64.046875 185.3359375 C-64.06105469 184.08167969 -64.07523437 182.82742188 -64.08984375 181.53515625 C-64.13818359 179.72724609 -64.13818359 179.72724609 -64.1875 177.8828125 C-64.2189209 176.21750488 -64.2189209 176.21750488 -64.25097656 174.51855469 C-64.91359254 170.95892002 -65.94614113 169.75798689 -68.796875 167.5859375 C-71.796875 166.91927083 -71.796875 166.91927083 -74.796875 167.5859375 C-77.64760887 169.75798689 -78.68015746 170.95892002 -79.34277344 174.51855469 C-79.3637207 175.62875977 -79.38466797 176.73896484 -79.40625 177.8828125 C-79.43847656 179.08808594 -79.47070312 180.29335938 -79.50390625 181.53515625 C-79.51808594 182.78941406 -79.53226562 184.04367187 -79.546875 185.3359375 C-79.59134766 187.24052734 -79.59134766 187.24052734 -79.63671875 189.18359375 C-79.70740534 192.31736586 -79.75440506 195.451656 -79.796875 198.5859375 C-87.716875 198.5859375 -95.636875 198.5859375 -103.796875 198.5859375 C-103.84585938 194.79480469 -103.89484375 191.00367188 -103.9453125 187.09765625 C-103.99929133 183.43395979 -104.05661106 179.77032982 -104.11425781 176.10668945 C-104.15258778 173.55660944 -104.18743348 171.00647461 -104.21875 168.45629883 C-104.26431299 164.79488507 -104.32232238 161.13385 -104.3828125 157.47265625 C-104.39436371 156.3288298 -104.40591492 155.18500336 -104.41781616 154.0065155 C-104.43768585 152.94564224 -104.45755554 151.88476898 -104.47802734 150.79174805 C-104.49135101 149.85687057 -104.50467468 148.9219931 -104.5184021 147.95878601 C-104.64604228 145.32042143 -104.64604228 145.32042143 -106.796875 142.5859375 C-109.55668502 141.33489443 -109.55668502 141.33489443 -112.796875 140.2734375 C-127.63373088 134.79345214 -139.30152541 125.98369962 -146.2734375 111.5234375 C-152.4475052 97.08117387 -154.47835874 82.6192577 -149.0546875 67.54296875 C-142.15728891 51.32765591 -131.72509066 40.50417326 -115.4296875 33.58203125 C-108.14781429 30.82701987 -101.01077247 30.27715794 -93.29223633 29.92675781 C-90.2345869 29.78328605 -87.71939859 29.56011203 -84.796875 28.5859375 C-84.52875 27.7815625 -84.260625 26.9771875 -83.984375 26.1484375 C-79.47653333 12.62491249 -69.39179813 2.63730371 -56.9921875 -3.890625 C-37.98072265 -12.89605572 -17.70323909 -11.54813941 0 0 Z " fill="#E9E9E7" transform="translate(255.796875,89.4140625)"/>
<path d="M0 0 C7.92007321 6.15230356 14.27677742 12.13985173 18.875 21.125 C21.21194304 25.1466068 22.40033107 26.90119855 26.7421875 28.68359375 C29.45833269 29.3506162 32.20219159 29.82781126 34.953125 30.328125 C47.99141971 32.80315097 58.28613604 40.91853279 67.25 50.25 C68.13558594 51.12398437 68.13558594 51.12398437 69.0390625 52.015625 C76.13049904 59.52420487 81.79917562 70.26242999 84.25 80.25 C84.55357422 81.35988281 84.55357422 81.35988281 84.86328125 82.4921875 C89.4990191 101.7289228 85.41261477 121.62421305 75.25 138.25 C73.12591042 141.48558657 70.85447572 144.39007464 68.25 147.25 C67.23486328 148.38501953 67.23486328 148.38501953 66.19921875 149.54296875 C60.89535036 155.1671418 55.08831916 159.61458588 48.25 163.25 C47.59 163.25 46.93 163.25 46.25 163.25 C46.25999275 164.9246357 46.25999275 164.9246357 46.27018738 166.63310242 C46.33099844 177.15355743 46.37597267 187.67397679 46.40543652 198.19456768 C46.42109339 203.60333773 46.44233226 209.0119659 46.47631836 214.4206543 C46.50891073 219.64019478 46.52685285 224.85959878 46.53463173 230.07923317 C46.54017543 232.07074952 46.55100088 234.06225839 46.56719017 236.05371666 C46.58896267 238.84286017 46.59196698 241.63143949 46.59057617 244.4206543 C46.601362 245.24424438 46.61214783 246.06783447 46.6232605 246.91638184 C46.59859007 251.48763973 46.29095338 254.58039856 43.25 258.25 C39.84514326 259.38495225 37.24353493 259.38160403 33.65211487 259.39044189 C32.64182414 259.39489858 32.64182414 259.39489858 31.6111235 259.3994453 C29.34954182 259.40813142 27.08801307 259.40964045 24.82641602 259.41113281 C23.20686734 259.41576096 21.58731975 259.42078562 19.96777344 259.42617798 C15.56493078 259.43930225 11.16210337 259.44574672 6.7592442 259.45018864 C4.00985779 259.45311866 1.26047555 259.45722328 -1.48890877 259.46169281 C-10.08741151 259.47536636 -18.68590471 259.48503433 -27.28441757 259.4888947 C-37.21746642 259.49337854 -47.15037787 259.51094211 -57.08338493 259.5398953 C-64.75733265 259.56148919 -72.43124164 259.57159771 -80.10521942 259.57293582 C-84.69068275 259.57398528 -89.27601689 259.57992321 -93.86144829 259.59775543 C-98.17310485 259.61419707 -102.48453457 259.61641075 -106.79621124 259.60761642 C-108.37968362 259.60684401 -109.963168 259.61121561 -111.54660988 259.62107468 C-113.7063893 259.63373499 -115.86535802 259.62795052 -118.02513123 259.61749268 C-119.23431434 259.61895924 -120.44349745 259.6204258 -121.68932247 259.6219368 C-125.03299018 259.21561073 -126.40369527 258.62821754 -128.75 256.25 C-130.00585321 252.48244038 -129.92683553 248.94172553 -129.95532227 245.01489258 C-129.96522186 244.17564743 -129.97512146 243.33640228 -129.98532104 242.47172546 C-130.01692396 239.69602282 -130.04168874 236.92030305 -130.06640625 234.14453125 C-130.08697682 232.22067315 -130.10797332 230.29681957 -130.12937927 228.37297058 C-130.18458932 223.30790864 -130.23400334 218.24280598 -130.28222656 213.17767334 C-130.33244935 208.00968805 -130.38813136 202.84176192 -130.44335938 197.67382812 C-130.55092791 187.53260262 -130.65237582 177.39132576 -130.75 167.25 C-131.82813965 166.73703369 -132.9062793 166.22406738 -134.01708984 165.69555664 C-135.45694592 164.99675119 -136.89654837 164.297423 -138.3359375 163.59765625 C-139.04355225 163.26270142 -139.75116699 162.92774658 -140.48022461 162.5826416 C-147.78020656 159.00821111 -153.16606556 154.07136158 -158.75 148.25 C-159.65298828 147.34121094 -159.65298828 147.34121094 -160.57421875 146.4140625 C-173.61553475 132.3801004 -178.36060613 113.47681518 -178.0234375 94.796875 C-177.33143375 78.69579755 -170.44067909 63.19840605 -159.75 51.25 C-159.09515625 50.50234375 -158.4403125 49.7546875 -157.765625 48.984375 C-146.11049817 36.47850899 -129.07140647 28.17970456 -111.921875 27.06640625 C-109.86367586 27.06317009 -107.80554613 27.14548071 -105.75 27.25 C-105.33041016 26.14011719 -105.33041016 26.14011719 -104.90234375 25.0078125 C-98.7607958 10.30973502 -85.12529411 -0.78568155 -70.83203125 -7.0234375 C-68.16006003 -8.02589779 -65.47283194 -8.89731284 -62.75 -9.75 C-61.64205078 -10.19666016 -61.64205078 -10.19666016 -60.51171875 -10.65234375 C-41.19325472 -17.89259711 -16.25287921 -11.31529565 0 0 Z M-84.75 22.25 C-87.35405493 25.78092194 -89.61541067 29.41959804 -91.75 33.25 C-92.1109375 33.89710937 -92.471875 34.54421875 -92.84375 35.2109375 C-93.95108747 37.31282807 -94.75 38.84446223 -94.75 41.25 C-97.63977786 42.21325929 -100.07131486 42.41907635 -103.0925293 42.53955078 C-120.3186556 43.24216635 -135.72550235 48.23524961 -147.75 61.25 C-158.66635524 74.50873106 -162.96145597 89.02513457 -161.99267578 105.94580078 C-160.50096045 120.10959287 -152.39737558 134.14256802 -141.46875 143.125 C-134.95231311 147.90921949 -127.9901143 151.11513862 -120.53515625 154.15234375 C-115.83228764 156.08542471 -115.83228764 156.08542471 -114.75 158.25 C-114.63097188 159.94463258 -114.57285313 161.64371122 -114.54467773 163.34228516 C-114.5147599 164.93370834 -114.5147599 164.93370834 -114.48423767 166.55728149 C-114.45916893 168.28076309 -114.45916893 168.28076309 -114.43359375 170.0390625 C-114.41281265 171.21262299 -114.39203156 172.38618347 -114.37062073 173.5953064 C-114.30508017 177.35514304 -114.24621924 181.11505122 -114.1875 184.875 C-114.14431908 187.41927832 -114.10070493 189.96354933 -114.05664062 192.5078125 C-113.94857661 198.75513599 -113.84953626 205.00251145 -113.75 211.25 C-105.83 211.25 -97.91 211.25 -89.75 211.25 C-89.72421875 209.34734375 -89.6984375 207.4446875 -89.671875 205.484375 C-89.61560098 202.98956017 -89.5582535 200.49476939 -89.5 198 C-89.48582031 196.74574219 -89.47164063 195.49148438 -89.45703125 194.19921875 C-89.42480469 192.99394531 -89.39257812 191.78867187 -89.359375 190.546875 C-89.33842773 189.43666992 -89.31748047 188.32646484 -89.29589844 187.18261719 C-88.63328246 183.62298252 -87.60073387 182.42204939 -84.75 180.25 C-81.75 179.75 -81.75 179.75 -78.75 180.25 C-75.89926613 182.42204939 -74.86671754 183.62298252 -74.20410156 187.18261719 C-74.17268066 188.8479248 -74.17268066 188.8479248 -74.140625 190.546875 C-74.09228516 192.35478516 -74.09228516 192.35478516 -74.04296875 194.19921875 C-74.02878906 195.45347656 -74.01460938 196.70773437 -74 198 C-73.95552734 199.90458984 -73.95552734 199.90458984 -73.91015625 201.84765625 C-73.83946966 204.98142836 -73.79246994 208.1157185 -73.75 211.25 C-65.83 211.25 -57.91 211.25 -49.75 211.25 C-49.72421875 209.34734375 -49.6984375 207.4446875 -49.671875 205.484375 C-49.61560098 202.98956017 -49.5582535 200.49476939 -49.5 198 C-49.48582031 196.74574219 -49.47164063 195.49148438 -49.45703125 194.19921875 C-49.42480469 192.99394531 -49.39257812 191.78867187 -49.359375 190.546875 C-49.33842773 189.43666992 -49.31748047 188.32646484 -49.29589844 187.18261719 C-48.63328246 183.62298252 -47.60073387 182.42204939 -44.75 180.25 C-41.75 179.75 -41.75 179.75 -38.75 180.25 C-35.89926613 182.42204939 -34.86671754 183.62298252 -34.20410156 187.18261719 C-34.17268066 188.8479248 -34.17268066 188.8479248 -34.140625 190.546875 C-34.09228516 192.35478516 -34.09228516 192.35478516 -34.04296875 194.19921875 C-34.02878906 195.45347656 -34.01460938 196.70773437 -34 198 C-33.95552734 199.90458984 -33.95552734 199.90458984 -33.91015625 201.84765625 C-33.83946966 204.98142836 -33.79246994 208.1157185 -33.75 211.25 C-25.83 211.25 -17.91 211.25 -9.75 211.25 C-9.72421875 209.34734375 -9.6984375 207.4446875 -9.671875 205.484375 C-9.61560098 202.98956017 -9.5582535 200.49476939 -9.5 198 C-9.48582031 196.74574219 -9.47164062 195.49148438 -9.45703125 194.19921875 C-9.42480469 192.99394531 -9.39257812 191.78867187 -9.359375 190.546875 C-9.33842773 189.43666992 -9.31748047 188.32646484 -9.29589844 187.18261719 C-8.63328246 183.62298252 -7.60073387 182.42204939 -4.75 180.25 C-1.75 179.75 -1.75 179.75 1.25 180.25 C4.10073387 182.42204939 5.13328246 183.62298252 5.79589844 187.18261719 C5.8168457 188.29282227 5.83779297 189.40302734 5.859375 190.546875 C5.90771484 192.35478516 5.90771484 192.35478516 5.95703125 194.19921875 C5.97121094 195.45347656 5.98539063 196.70773437 6 198 C6.02964844 199.26972656 6.05929687 200.53945313 6.08984375 201.84765625 C6.16053034 204.98142836 6.20753006 208.1157185 6.25 211.25 C14.17 211.25 22.09 211.25 30.25 211.25 C30.25410889 209.57454102 30.25821777 207.89908203 30.26245117 206.17285156 C30.28420512 199.9629022 30.33845749 193.75358981 30.40258789 187.54394531 C30.42858309 184.85506638 30.44228495 182.16653939 30.44555664 179.47753906 C30.45482187 175.61465309 30.49576398 171.75321042 30.54296875 167.890625 C30.5390361 166.6863385 30.53510345 165.482052 30.53105164 164.24127197 C30.67724645 155.89921066 30.67724645 155.89921066 33.63305664 152.54882812 C34.9284436 151.9059082 34.9284436 151.9059082 36.25 151.25 C37.10078125 150.78078125 37.9515625 150.3115625 38.828125 149.828125 C39.70984375 149.38984375 40.5915625 148.9515625 41.5 148.5 C55.96330952 140.72402714 64.32576857 128.28989401 69 112.7578125 C72.63559191 97.35704123 69.94972453 82.87130112 62.1953125 69.29296875 C54.58185691 57.38356733 43.73859793 49.44367082 30.25 45.25 C26.75037221 44.52617126 23.2294477 43.92807843 19.68115234 43.50097656 C16.21096366 43.00190489 14.47689042 42.47380347 11.953125 39.984375 C10.32461313 37.36979172 8.87077317 34.75767308 7.5 32 C-0.59095391 16.95082573 -13.25320707 9.43517742 -29.07421875 4.13671875 C-49.51445846 -0.7941361 -70.73104803 6.96528235 -84.75 22.25 Z " fill="#010001" transform="translate(265.75,76.75)"/>
<path d="M0 0 C1.11767504 -0.0039821 2.23535007 -0.00796419 3.38689405 -0.01206696 C5.22103007 -0.00332844 5.22103007 -0.00332844 7.09221935 0.00558662 C9.04648201 0.00302335 9.04648201 0.00302335 11.04022473 0.00040829 C14.65467297 -0.00406427 18.2690027 0.00393717 21.88343585 0.01396441 C25.78181652 0.02259793 29.68019045 0.01967882 33.578578 0.01815987 C40.33219836 0.01711095 47.0857801 0.02338823 53.83939075 0.03463554 C63.60398355 0.05088671 73.36855766 0.05609816 83.13316252 0.05861153 C98.9754163 0.06298923 114.81764949 0.07630039 130.65989208 0.09521675 C146.04953947 0.11357359 161.43918127 0.12773106 176.82883739 0.13623238 C177.77738837 0.13675782 178.72593935 0.13728327 179.70323429 0.13782464 C184.46181574 0.14043471 189.22039724 0.14296212 193.97897875 0.14544845 C233.45881273 0.1661833 272.93862318 0.20155952 312.418437 0.24609566 C312.418437 5.52609566 312.418437 10.80609566 312.418437 16.24609566 C309.9843446 16.24974129 307.55025219 16.25338692 305.04239941 16.25714302 C282.14523967 16.29333092 259.24821152 16.35148292 236.35115719 16.4299984 C224.57849678 16.46983667 212.80590368 16.50220482 201.0331831 16.51709175 C190.77411747 16.53008346 180.51519964 16.55698452 170.25621724 16.60070872 C164.82228849 16.6233794 159.38854243 16.63900298 153.95456219 16.63797951 C148.84258808 16.6372362 143.73101866 16.65505396 138.61914921 16.68726349 C136.74060631 16.69579992 134.86201822 16.69748719 132.98346424 16.69189835 C130.42263528 16.68529304 127.86310707 16.70309448 125.30240917 16.72711372 C124.55532562 16.71935331 123.80824207 16.71159289 123.03851962 16.70359731 C119.60897199 16.76072558 117.73565841 17.00833262 114.95693874 19.09103203 C112.85540824 22.03476088 112.82836748 23.70567852 113.418437 27.24609566 C114.90169652 29.55375172 114.90169652 29.55375172 117.418437 31.24609566 C120.17895111 31.64235909 122.54268915 31.7937445 125.30240917 31.76507759 C126.50197479 31.77632947 126.50197479 31.77632947 127.72577405 31.78780866 C130.40842172 31.80812641 133.09022747 31.79997534 135.77292919 31.79199409 C137.69468556 31.8007269 139.61643466 31.81121165 141.53817272 31.82332039 C146.75890133 31.85123683 151.97939335 31.85458383 157.20018578 31.8536005 C162.65484669 31.85672475 168.10940027 31.88233277 173.56400585 31.90558052 C183.89470886 31.94618147 194.22534868 31.96649087 204.5561192 31.97955441 C216.31662541 31.99541059 228.07702388 32.03382038 239.83746767 32.0741477 C264.03109112 32.15660272 288.22470401 32.20985981 312.418437 32.24609566 C312.418437 37.52609566 312.418437 42.80609566 312.418437 48.24609566 C272.04331269 48.33734229 231.66820457 48.40813242 191.29299769 48.45035698 C186.52654239 48.45535981 181.76008731 48.4605371 176.99363232 48.46582222 C176.0447153 48.46687146 175.09579829 48.4679207 174.11812621 48.46900174 C158.75256557 48.48640787 143.38706477 48.51794672 128.02153963 48.55470684 C112.25557172 48.59211045 96.48963516 48.61433029 80.72362471 48.62244964 C70.99481557 48.62793861 61.26617561 48.64527625 51.53741854 48.67776152 C44.8664117 48.69890225 38.19549233 48.7052967 31.52445441 48.70010117 C27.67534082 48.69753869 23.82652287 48.701472 19.97746181 48.72291756 C15.80244224 48.74600913 11.62805184 48.73804453 7.4529829 48.72711372 C6.23896408 48.73876509 5.02494525 48.75041646 3.77413797 48.76242089 C-4.36297907 48.70474663 -9.75577462 47.58606963 -16.0425005 42.09765816 C-21.98756093 35.18197561 -24.11856905 30.17227833 -23.88234425 20.98437691 C-23.02727485 13.19991396 -18.61346638 8.90003566 -12.89796925 3.91015816 C-8.71465999 0.9049478 -5.11431403 -0.0040286 0 0 Z " fill="#E9E9E7" transform="translate(39.581562995910645,415.75390434265137)"/>
<path d="M0 0 C0 126.72 0 253.44 0 384 C-5.28 384.33 -10.56 384.66 -16 385 C-20.29059487 386.54938148 -24.01123713 387.96115783 -28 390 C-29.33290992 390.66751282 -30.66617328 391.33432101 -32 392 C-32.09153575 344.490805 -32.16202869 296.98161933 -32.20426132 249.47235355 C-32.2092642 243.86470691 -32.21444149 238.25706044 -32.21972656 232.64941406 C-32.2207758 231.53302262 -32.22182505 230.41663118 -32.22290608 229.2664097 C-32.24031599 211.18491273 -32.27185692 193.10346658 -32.30861118 175.02199978 C-32.34600428 156.47168075 -32.36823241 137.92138836 -32.37635398 119.37103319 C-32.38184513 107.92250513 -32.39919465 96.4741207 -32.43166587 85.02563685 C-32.45279359 77.17724494 -32.45920398 69.32892739 -32.45400551 61.4805091 C-32.45144103 56.95092345 -32.45539949 52.42158898 -32.4768219 47.89204788 C-32.49629643 43.7440812 -32.49726425 39.59653445 -32.48359558 35.44854838 C-32.48190639 33.94908045 -32.48697311 32.44958626 -32.49953273 30.95016998 C-32.57409381 21.49811185 -32.29398545 14.83937538 -25.81640625 7.5390625 C-24.70072266 6.59160156 -24.70072266 6.59160156 -23.5625 5.625 C-22.82128906 4.97789063 -22.08007812 4.33078125 -21.31640625 3.6640625 C-14.09964987 -1.52031898 -9.74731326 0 0 0 Z " fill="#951A1F" transform="translate(48,16)"/>
<path d="M0 0 C9.69239571 -0.06954115 19.3847054 -0.12283212 29.07729626 -0.15543652 C33.57806911 -0.17108579 38.07867115 -0.19231054 42.5793457 -0.22631836 C46.92356862 -0.25893821 51.26762733 -0.27685857 55.61196327 -0.28463173 C57.26855364 -0.29017053 58.92513512 -0.30098652 60.5816555 -0.31719017 C62.90383632 -0.3389997 65.2253405 -0.34196551 67.54760742 -0.34057617 C68.23093643 -0.351362 68.91426544 -0.36214783 69.61830139 -0.3732605 C75.35642219 -0.33616585 78.24138003 1.29383599 82.28411865 5.21598816 C84.43999671 8.71389321 84.53679473 11.56119325 84.45410156 15.54418945 C84.45468567 16.28619095 84.45526978 17.02819244 84.45587158 17.79267883 C84.45309564 20.23336364 84.42202886 22.67281111 84.390625 25.11328125 C84.38316082 26.81006707 84.37746872 28.50686153 84.37347412 30.20365906 C84.35823162 34.66069511 84.31896207 39.11720636 84.2746582 43.57403564 C84.23367543 48.12545676 84.21545671 52.67696302 84.1953125 57.22851562 C84.15246621 66.15257381 84.08423188 75.07624319 84 84 C79.21640771 79.9237402 74.51889738 75.80713995 70 71.4375 C69.40316406 70.88642578 68.80632812 70.33535156 68.19140625 69.76757812 C66.5 68.12109375 66.5 68.12109375 64 65 C64.05859375 62.32421875 64.05859375 62.32421875 65 60 C67.61084314 51.09241753 68.64631203 42.62951634 64.2421875 34.125 C63.83226562 33.42375 63.42234375 32.7225 63 32 C62.61070312 31.29875 62.22140625 30.5975 61.8203125 29.875 C57.4325312 23.02071442 50.24973697 19.33467889 42.46484375 17.35546875 C36.61423694 16.51172038 30.51568868 15.98312998 25.0625 18.5625 C22 20 22 20 20.07910156 19.83984375 C17.31341787 18.72265823 15.76559709 17.1204113 13.671875 15 C12.87265625 14.195625 12.0734375 13.39125 11.25 12.5625 C10.425 11.716875 9.6 10.87125 8.75 10 C7.90953125 9.154375 7.0690625 8.30875 6.203125 7.4375 C0 1.15381494 0 1.15381494 0 0 Z " fill="#F9B33F" transform="translate(300,16)"/>
<path d="M0 0 C47.52 0 95.04 0 144 0 C144 5.28 144 10.56 144 16 C96.48 16 48.96 16 0 16 C0 10.72 0 5.44 0 0 Z " fill="#CACACA" transform="translate(152,304)"/>
<path d="M0 0 C2.39420331 0.04835294 4.77324867 0.00033273 7.16699219 -0.05712891 C16.55972527 -0.09316101 22.19530479 1.10524161 29.20507812 7.93286133 C30.28837402 9.04189819 30.28837402 9.04189819 31.39355469 10.17333984 C37.22517992 14.76273277 43.29512703 17.55470454 50.25390625 19.99438477 C54.08370326 21.39205199 56.42110525 22.53353207 58.39355469 26.17333984 C58.89355469 29.11083984 58.89355469 29.11083984 58.39355469 32.17333984 C56.33105469 35.04833984 56.33105469 35.04833984 53.39355469 37.17333984 C47.84211261 37.72916188 43.62372515 36.45399567 38.64355469 34.17333984 C37.94907227 33.86227295 37.25458984 33.55120605 36.5390625 33.23071289 C29.58516182 29.99706878 22.65671914 25.97216763 17.61181641 20.09912109 C12.27951312 15.46988839 2.34204763 17.26943066 -4.35644531 17.46630859 C-9.43247948 17.84627336 -12.52570805 18.44830187 -16.23144531 22.17333984 C-16.89917969 22.98931641 -17.56691406 23.80529297 -18.25488281 24.64599609 C-21.36603494 27.98970943 -24.77374377 29.65613073 -28.85644531 31.61083984 C-29.53143066 31.94019531 -30.20641602 32.26955078 -30.90185547 32.60888672 C-42.44645806 38.09078475 -42.44645806 38.09078475 -48.60644531 37.17333984 C-51.92918935 34.7173986 -53.38262539 33.24767545 -54.23144531 29.17333984 C-53.59766649 26.13120148 -52.87443957 24.46561249 -50.54785156 22.38427734 C-46.93837548 20.13289387 -42.86299145 18.91967625 -38.87988281 17.47412109 C-33.32183347 15.26549289 -28.59827914 12.20671625 -24.40576172 7.92675781 C-16.73438109 0.44819465 -10.21760079 -0.24527273 0 0 Z " fill="#040404" transform="translate(221.6064453125,208.82666015625)"/>
<path d="M0 0 C0.67544861 -0.0087616 1.35089722 -0.01752319 2.04681396 -0.02655029 C4.26885132 -0.04847103 6.48888166 -0.03402082 8.7109375 -0.01708984 C10.26123434 -0.02046017 11.81152859 -0.02531459 13.36181641 -0.03158569 C16.6067019 -0.03894698 19.85089795 -0.0282766 23.09570312 -0.00488281 C27.2489408 0.02360583 31.40056301 0.00719768 35.55374146 -0.02274513 C38.75378527 -0.04083902 41.95344793 -0.03505079 45.15350342 -0.02210617 C46.68447055 -0.01877787 48.21547262 -0.02283903 49.74639893 -0.03450394 C51.8891524 -0.04724882 54.02931399 -0.02779228 56.171875 0 C57.3892334 0.00397797 58.6065918 0.00795593 59.86083984 0.01205444 C63.99807896 0.82654403 65.49260642 2.38881877 68.0859375 5.64697266 C68.7109375 8.64697266 68.7109375 8.64697266 68.0859375 11.64697266 C65.49260642 14.90512654 63.99807896 16.46740128 59.86083984 17.28189087 C58.03480225 17.28785782 58.03480225 17.28785782 56.171875 17.29394531 C55.15870209 17.30708771 55.15870209 17.30708771 54.12506104 17.32049561 C51.90302368 17.34241634 49.68299334 17.32796613 47.4609375 17.31103516 C45.91064066 17.31440548 44.36034641 17.3192599 42.81005859 17.32553101 C39.5651731 17.33289229 36.32097705 17.32222192 33.07617188 17.29882812 C28.9229342 17.27033948 24.77131199 17.28674763 20.61813354 17.31669044 C17.41808973 17.33478433 14.21842707 17.3289961 11.01837158 17.31605148 C9.48740445 17.31272318 7.95640238 17.31678434 6.42547607 17.32844925 C4.2827226 17.34119413 2.14256101 17.32173759 0 17.29394531 C-1.2173584 17.28996735 -2.4347168 17.28598938 -3.68896484 17.28189087 C-7.82620396 16.46740128 -9.32073142 14.90512654 -11.9140625 11.64697266 C-12.5390625 8.64697266 -12.5390625 8.64697266 -11.9140625 5.64697266 C-8.21836279 1.00384843 -5.87469163 0.01919675 0 0 Z " fill="#010000" transform="translate(227.9140625,359.35302734375)"/>
<path d="M0 0 C13.53 0 27.06 0 41 0 C38.69 3.63 36.38 7.26 34 11 C32.7068802 14.75004741 32.39931619 16.60486342 33.96875 20.25 C35.22196907 22.57304023 36.57255513 24.78040167 38 27 C38.99 28.65 39.98 30.3 41 32 C27.47 32 13.94 32 0 32 C0 21.44 0 10.88 0 0 Z " fill="#009BF6" transform="translate(400,160)"/>
<path d="M0 0 C1.76947998 -0.00717545 1.76947998 -0.00717545 3.57470703 -0.01449585 C6.06609431 -0.01789477 8.55752619 -0.00869315 11.04882812 0.01220703 C14.86168899 0.03896907 18.67160568 0.01245507 22.484375 -0.01953125 C24.9062565 -0.01622716 27.32813616 -0.00982094 29.75 0 C31.45953857 -0.01518173 31.45953857 -0.01518173 33.20361328 -0.03067017 C41.08128674 0.08595386 41.08128674 0.08595386 45.1015625 3.01416016 C47.26917591 6.25304727 47.52598394 7.83953182 46.875 11.6640625 C45.09515595 14.7999782 44.35191793 15.50508986 40.875 16.6640625 C39.16865843 16.77632562 37.45839861 16.83302662 35.74853516 16.85693359 C34.70380035 16.87299652 33.65906555 16.88905945 32.58267212 16.90560913 C27.81488736 16.95008593 23.04724045 16.99110554 18.27929688 17.01416016 C15.76325239 17.03073874 13.24725536 17.05805332 10.73144531 17.09619141 C7.10456909 17.15088466 3.47879524 17.17282172 -0.1484375 17.1875 C-1.83457657 17.22150406 -1.83457657 17.22150406 -3.55477905 17.25619507 C-11.34355853 17.23507473 -11.34355853 17.23507473 -15.33447266 14.31884766 C-17.125 11.6640625 -17.125 11.6640625 -17.75 8.6640625 C-15.78392524 -0.77309636 -7.88621583 -0.07003435 0 0 Z " fill="#020202" transform="translate(49.125,431.3359375)"/>
<path d="M0 0 C5.67476113 1.96434039 9.31400331 5.62800662 12 11 C12.59057744 16.67862925 12.29370905 21.16922672 9 26 C4.57092517 30.57795129 1.3260831 31.81241265 -4.875 32.3125 C-9.23455451 32.24767391 -11.6384369 30.82676897 -15 28 C-19.3022759 23.23261319 -20.36282503 19.56252705 -20.28125 13.28125 C-19.69180611 8.50020514 -16.85179203 5.75038822 -13.375 2.6875 C-8.92314854 -0.47565762 -5.3540278 -0.48837416 0 0 Z " fill="#E4992B" transform="translate(340,48)"/>
<path d="M0 0 C0.07425639 5.88986463 0.12865268 11.77945566 0.16479492 17.66967773 C0.17986465 19.67265572 0.2003241 21.6756008 0.22631836 23.6784668 C0.26278127 26.56046681 0.27974461 29.44202984 0.29296875 32.32421875 C0.30845261 33.21711105 0.32393646 34.11000336 0.33988953 35.029953 C0.34147756 40.92037474 -0.59950648 44.19942423 -4.5 48.75 C-8.13433415 51.77861179 -11.13954285 51 -16 51 C-16 35.16 -16 19.32 -16 3 C-12.7 2.67 -9.4 2.34 -6 2 C-0.23529412 0 -0.23529412 0 0 0 Z " fill="#951A1F" transform="translate(384,413)"/>
<path d="M0 0 C8.25 0 16.5 0 25 0 C23.865625 1.670625 22.73125 3.34125 21.5625 5.0625 C17.7111805 11.06209082 17.7111805 11.06209082 17 18 C18.37894117 21.20270208 20.11710513 24.07220194 22 27 C22.99 28.65 23.98 30.3 25 32 C16.75 32 8.5 32 0 32 C0 21.44 0 10.88 0 0 Z " fill="#01A336" transform="translate(400,80)"/>
<path d="M0 0 C1.31484375 -0.00644531 2.6296875 -0.01289063 3.984375 -0.01953125 C5.0043457 -0.0038208 5.0043457 -0.0038208 6.04492188 0.01220703 C8.12034681 0.03900242 10.19036676 0.01243363 12.265625 -0.01953125 C14.23789063 -0.00986328 14.23789063 -0.00986328 16.25 0 C17.44882813 0.00563965 18.64765625 0.0112793 19.8828125 0.01708984 C24.026459 0.84394701 25.52338235 2.40059813 28.125 5.6640625 C28.75 8.6640625 28.75 8.6640625 28.125 11.6640625 C25.52338235 14.92752687 24.026459 16.48417799 19.8828125 17.31103516 C18.68398437 17.3166748 17.48515625 17.32231445 16.25 17.328125 C14.93515625 17.33457031 13.6203125 17.34101563 12.265625 17.34765625 C11.58564453 17.33718262 10.90566406 17.32670898 10.20507812 17.31591797 C8.12965319 17.28912258 6.05963324 17.31569137 3.984375 17.34765625 C2.01210937 17.33798828 2.01210937 17.33798828 0 17.328125 C-1.79824219 17.31966553 -1.79824219 17.31966553 -3.6328125 17.31103516 C-7.776459 16.48417799 -9.27338235 14.92752687 -11.875 11.6640625 C-12.5 8.6640625 -12.5 8.6640625 -11.875 5.6640625 C-8.19554797 1.04856469 -5.84901743 0.02751554 0 0 Z " fill="#020000" transform="translate(171.875,359.3359375)"/>
<path d="M0 0 C3.375 2.125 3.375 2.125 5 5 C5.57210224 8.50412619 5.44040698 10.22404484 3.6875 13.3125 C0.52592843 16.47407157 -3.11841691 16.24837396 -7.375 16.375 C-11.79028114 16.3356218 -13.53327074 16.29941123 -17.3125 13.875 C-19.32483711 10.44657382 -19.81252952 8.9001417 -19 5 C-15.01213901 -2.05544637 -7.1276401 -1.0546866 0 0 Z " fill="#050505" transform="translate(131,432)"/>
</svg>
